<svg width="144" height="128" viewBox="0 0 144 128" fill="none" xmlns="http://www.w3.org/2000/svg">
<path d="M52.0879 6.10352e-05C37.6091 26.462 24.8365 35.5309 0.997374 36.2755L4.11749 44.848C27.9566 44.1034 40.7292 35.0345 55.364 9.00114L52.0879 6.10352e-05ZM58.3281 17.145C43.8494 43.6069 31.0767 52.6758 7.23761 53.4204L11.9178 66.2791C19.7181 87.7102 35.5378 98.0535 57.7438 103.862C67.4694 75.3813 70.8086 51.4348 63.0083 30.0036L58.3281 17.145ZM56.622 34.5381C62.5502 50.8257 60.8368 69.3028 53.5316 92.2895C35.7741 86.5585 24.2323 78.0323 18.3041 61.7447C33.4168 59.1052 46.1894 50.0363 56.622 34.5381Z" fill="#5C38FF" fill-opacity="0.9"/>
<path d="M78.6758 44C83.6718 72.6782 80.5027 90.651 65.9995 115.891L85.4987 119.329C101.748 122.194 124.416 107.66 137.335 91.4063C130.754 71.7144 114.424 50.3034 98.175 47.4382L78.6758 44ZM86.8408 54.7055L96.5904 56.4246C107.965 58.4302 121.188 74.6604 128.56 89.8591C116.434 101.619 98.4577 112.348 87.0832 110.343L77.3336 108.624C85.1317 91.0039 88.1423 73.9298 86.8408 54.7055Z" fill="#5C38FF" fill-opacity="0.9"/>
</svg>
