<svg width="32" height="33" viewBox="0 0 32 33" fill="none" xmlns="http://www.w3.org/2000/svg">
<path d="M0 18.2671L24.6661 32.5081L30.2703 22.8012C32.6731 18.6394 31.4939 12.9919 27.2696 8.77339C27.8581 8.46606 28.5167 8.0374 28.8669 7.43072C29.4243 6.46532 29.4716 5.25813 28.9984 4.07473C28.5252 2.89133 27.5702 1.82865 26.3437 1.12047C25.1171 0.412299 23.7193 0.116634 22.4578 0.298522C21.1964 0.480411 20.1745 1.12495 19.6172 2.09036C19.2669 2.69704 19.1689 3.40082 19.2531 4.14508C13.4876 2.59597 8.00707 4.39844 5.60425 8.56025L0 18.2671ZM4.48432 17.6205L8.68751 10.3404C9.80226 8.40956 11.8459 7.12048 14.3688 6.7567C16.8917 6.39292 19.6873 6.98425 22.1405 8.4006C24.5937 9.81696 26.5035 11.9423 27.45 14.3091C28.3964 16.6759 28.3018 19.0903 27.1871 21.0211L22.9839 28.3012L4.48432 17.6205ZM22.7004 3.87048C23.0507 3.2638 24.1718 3.10216 24.9426 3.54719C25.7134 3.99222 26.134 5.04392 25.7837 5.6506C25.5979 5.9724 25.2573 6.18725 24.8368 6.24788C24.4163 6.30851 23.9504 6.20995 23.5415 5.97389C22.7707 5.52886 22.3502 4.47716 22.7004 3.87048Z" fill="#E33E5A" fill-opacity="0.7"/>
</svg>
