<svg width="1208" height="1079" viewBox="0 0 1208 1079" fill="none" xmlns="http://www.w3.org/2000/svg">
<rect x="36" y="26.446" width="215" height="4.26549" fill="#FFD600"/>
<path d="M48.7204 26C48.3364 26 48.0057 25.872 47.7284 25.616C47.4724 25.36 47.3444 25.0293 47.3444 24.624V2.384C47.3444 2 47.4724 1.68 47.7284 1.424C48.0057 1.14667 48.3364 1.008 48.7204 1.008C49.1044 1.008 49.4244 1.14667 49.6804 1.424C49.9577 1.68 50.0964 2 50.0964 2.384V23.344H62.3204C62.7044 23.344 63.0244 23.472 63.2804 23.728C63.5577 23.984 63.6964 24.2933 63.6964 24.656C63.6964 25.04 63.5577 25.36 63.2804 25.616C63.0244 25.872 62.7044 26 62.3204 26H48.7204ZM74.8561 26.16C73.1281 26.16 71.5921 25.776 70.2481 25.008C68.9255 24.24 67.8801 23.184 67.1121 21.84C66.3441 20.496 65.9601 18.9707 65.9601 17.264C65.9601 15.536 66.3441 14 67.1121 12.656C67.8801 11.312 68.9255 10.256 70.2481 9.488C71.5921 8.72 73.1281 8.336 74.8561 8.336C76.5628 8.336 78.0775 8.72 79.4001 9.488C80.7228 10.256 81.7681 11.312 82.5361 12.656C83.3041 14 83.6988 15.536 83.7201 17.264C83.7201 18.9707 83.3361 20.496 82.5681 21.84C81.8001 23.184 80.7441 24.24 79.4001 25.008C78.0775 25.776 76.5628 26.16 74.8561 26.16ZM74.8561 23.728C76.0508 23.728 77.1175 23.4507 78.0561 22.896C78.9948 22.32 79.7308 21.552 80.2641 20.592C80.7975 19.6107 81.0641 18.5013 81.0641 17.264C81.0641 16.0267 80.7975 14.9173 80.2641 13.936C79.7308 12.9547 78.9948 12.1867 78.0561 11.632C77.1175 11.056 76.0508 10.768 74.8561 10.768C73.6615 10.768 72.5841 11.056 71.6241 11.632C70.6855 12.1867 69.9388 12.9547 69.3841 13.936C68.8508 14.9173 68.5841 16.0267 68.5841 17.264C68.5841 18.5013 68.8508 19.6107 69.3841 20.592C69.9388 21.552 70.6855 22.32 71.6241 22.896C72.5841 23.4507 73.6615 23.728 74.8561 23.728ZM95.6171 26.16C93.9531 26.16 92.4811 25.7867 91.2011 25.04C89.9211 24.272 88.9185 23.216 88.1931 21.872C87.4678 20.528 87.1051 18.992 87.1051 17.264C87.1051 15.5147 87.4891 13.968 88.2571 12.624C89.0251 11.28 90.0705 10.2347 91.3931 9.488C92.7371 8.72 94.2731 8.336 96.0011 8.336C97.7078 8.336 99.2225 8.72 100.545 9.488C101.889 10.2347 102.934 11.28 103.681 12.624C104.449 13.968 104.844 15.5147 104.865 17.264L103.265 17.808C103.265 19.4293 102.934 20.8693 102.273 22.128C101.633 23.3867 100.737 24.3787 99.5851 25.104C98.4331 25.808 97.1105 26.16 95.6171 26.16ZM96.0011 33.008C94.3798 33.008 92.9185 32.6987 91.6171 32.08C90.3371 31.4613 89.2598 30.5973 88.3851 29.488C88.1505 29.2107 88.0545 28.9013 88.0971 28.56C88.1398 28.24 88.3105 27.984 88.6091 27.792C88.9291 27.5787 89.2705 27.504 89.6331 27.568C89.9958 27.632 90.2838 27.8133 90.4971 28.112C91.0945 28.8587 91.8625 29.456 92.8011 29.904C93.7398 30.352 94.8278 30.576 96.0651 30.576C97.1958 30.576 98.2305 30.2987 99.1691 29.744C100.108 29.2107 100.844 28.432 101.377 27.408C101.932 26.384 102.209 25.168 102.209 23.76V19.024L103.169 16.848L104.865 17.264V23.92C104.865 25.6267 104.481 27.1627 103.713 28.528C102.945 29.9147 101.9 31.0027 100.577 31.792C99.2545 32.6027 97.7291 33.008 96.0011 33.008ZM96.0011 23.728C97.2171 23.728 98.2838 23.4507 99.2011 22.896C100.14 22.3413 100.876 21.584 101.409 20.624C101.942 19.6427 102.209 18.5227 102.209 17.264C102.209 16.0053 101.942 14.8853 101.409 13.904C100.876 12.9227 100.14 12.1547 99.2011 11.6C98.2838 11.0453 97.2171 10.768 96.0011 10.768C94.7851 10.768 93.7078 11.0453 92.7691 11.6C91.8305 12.1547 91.0838 12.9227 90.5291 13.904C89.9958 14.8853 89.7291 16.0053 89.7291 17.264C89.7291 18.5227 89.9958 19.6427 90.5291 20.624C91.0838 21.584 91.8305 22.3413 92.7691 22.896C93.7078 23.4507 94.7851 23.728 96.0011 23.728ZM111.002 26C110.597 26 110.266 25.8827 110.01 25.648C109.754 25.392 109.626 25.0507 109.626 24.624V9.872C109.626 9.44533 109.754 9.11467 110.01 8.88C110.266 8.624 110.597 8.496 111.002 8.496C111.407 8.496 111.727 8.624 111.962 8.88C112.218 9.11467 112.346 9.44533 112.346 9.872V24.624C112.346 25.0507 112.218 25.392 111.962 25.648C111.727 25.8827 111.407 26 111.002 26ZM110.97 5.328C110.458 5.328 110.021 5.14667 109.658 4.784C109.295 4.4 109.114 3.952 109.114 3.44C109.114 2.90667 109.295 2.46933 109.658 2.128C110.042 1.78667 110.479 1.616 110.97 1.616C111.461 1.616 111.887 1.78667 112.25 2.128C112.634 2.46933 112.826 2.90667 112.826 3.44C112.826 3.952 112.645 4.4 112.282 4.784C111.919 5.14667 111.482 5.328 110.97 5.328ZM125.657 26.16C123.993 26.16 122.521 25.7867 121.241 25.04C119.961 24.272 118.958 23.216 118.233 21.872C117.508 20.528 117.145 18.992 117.145 17.264C117.145 15.5147 117.529 13.968 118.297 12.624C119.065 11.28 120.11 10.2347 121.433 9.488C122.777 8.72 124.313 8.336 126.041 8.336C127.748 8.336 129.262 8.72 130.585 9.488C131.929 10.2347 132.974 11.28 133.721 12.624C134.489 13.968 134.884 15.5147 134.905 17.264L133.305 17.808C133.305 19.4293 132.974 20.8693 132.313 22.128C131.673 23.3867 130.777 24.3787 129.625 25.104C128.473 25.808 127.15 26.16 125.657 26.16ZM126.041 33.008C124.42 33.008 122.958 32.6987 121.657 32.08C120.377 31.4613 119.3 30.5973 118.425 29.488C118.19 29.2107 118.094 28.9013 118.137 28.56C118.18 28.24 118.35 27.984 118.649 27.792C118.969 27.5787 119.31 27.504 119.673 27.568C120.036 27.632 120.324 27.8133 120.537 28.112C121.134 28.8587 121.902 29.456 122.841 29.904C123.78 30.352 124.868 30.576 126.105 30.576C127.236 30.576 128.27 30.2987 129.209 29.744C130.148 29.2107 130.884 28.432 131.417 27.408C131.972 26.384 132.249 25.168 132.249 23.76V19.024L133.209 16.848L134.905 17.264V23.92C134.905 25.6267 134.521 27.1627 133.753 28.528C132.985 29.9147 131.94 31.0027 130.617 31.792C129.294 32.6027 127.769 33.008 126.041 33.008ZM126.041 23.728C127.257 23.728 128.324 23.4507 129.241 22.896C130.18 22.3413 130.916 21.584 131.449 20.624C131.982 19.6427 132.249 18.5227 132.249 17.264C132.249 16.0053 131.982 14.8853 131.449 13.904C130.916 12.9227 130.18 12.1547 129.241 11.6C128.324 11.0453 127.257 10.768 126.041 10.768C124.825 10.768 123.748 11.0453 122.809 11.6C121.87 12.1547 121.124 12.9227 120.569 13.904C120.036 14.8853 119.769 16.0053 119.769 17.264C119.769 18.5227 120.036 19.6427 120.569 20.624C121.124 21.584 121.87 22.3413 122.809 22.896C123.748 23.4507 124.825 23.728 126.041 23.728ZM140.402 15.152C140.445 13.8507 140.775 12.688 141.394 11.664C142.034 10.6187 142.866 9.79733 143.89 9.2C144.935 8.60267 146.077 8.304 147.314 8.304C148.402 8.304 149.223 8.464 149.778 8.784C150.354 9.104 150.567 9.54133 150.418 10.096C150.354 10.3947 150.215 10.608 150.002 10.736C149.81 10.864 149.575 10.928 149.298 10.928C149.042 10.928 148.743 10.9067 148.402 10.864C147.143 10.7147 146.023 10.8 145.042 11.12C144.082 11.4187 143.314 11.92 142.738 12.624C142.162 13.328 141.874 14.1707 141.874 15.152H140.402ZM140.562 26C140.135 26 139.805 25.8827 139.57 25.648C139.335 25.4133 139.218 25.0827 139.218 24.656V9.84C139.218 9.41333 139.335 9.08267 139.57 8.848C139.805 8.61333 140.135 8.496 140.562 8.496C140.989 8.496 141.309 8.61333 141.522 8.848C141.757 9.08267 141.874 9.41333 141.874 9.84V24.656C141.874 25.0827 141.757 25.4133 141.522 25.648C141.309 25.8827 140.989 26 140.562 26ZM159.978 26.16C158.357 26.16 156.906 25.776 155.626 25.008C154.346 24.2187 153.333 23.152 152.586 21.808C151.84 20.464 151.466 18.9493 151.466 17.264C151.466 15.5573 151.85 14.032 152.618 12.688C153.408 11.344 154.474 10.288 155.818 9.52C157.162 8.73067 158.677 8.336 160.362 8.336C162.026 8.336 163.52 8.73067 164.842 9.52C166.186 10.288 167.242 11.344 168.01 12.688C168.8 14.032 169.205 15.5573 169.226 17.264L168.138 17.808C168.138 19.3867 167.776 20.8053 167.05 22.064C166.346 23.3227 165.376 24.3253 164.138 25.072C162.922 25.7973 161.536 26.16 159.978 26.16ZM160.362 23.728C161.557 23.728 162.613 23.4507 163.53 22.896C164.469 22.32 165.205 21.5413 165.738 20.56C166.293 19.5787 166.57 18.48 166.57 17.264C166.57 16.0267 166.293 14.928 165.738 13.968C165.205 12.9867 164.469 12.208 163.53 11.632C162.613 11.056 161.557 10.768 160.362 10.768C159.189 10.768 158.122 11.056 157.162 11.632C156.224 12.208 155.477 12.9867 154.922 13.968C154.368 14.928 154.09 16.0267 154.09 17.264C154.09 18.48 154.368 19.5787 154.922 20.56C155.477 21.5413 156.224 22.32 157.162 22.896C158.122 23.4507 159.189 23.728 160.362 23.728ZM167.85 26C167.466 26 167.136 25.8827 166.858 25.648C166.602 25.392 166.474 25.0613 166.474 24.656V19.376L167.082 16.592L169.226 17.264V24.656C169.226 25.0613 169.098 25.392 168.842 25.648C168.586 25.8827 168.256 26 167.85 26ZM196.995 26C196.59 26 196.259 25.8827 196.003 25.648C195.747 25.392 195.619 25.0613 195.619 24.656V15.472C195.619 14 195.246 12.8587 194.499 12.048C193.753 11.2373 192.782 10.832 191.587 10.832C190.329 10.832 189.294 11.2587 188.483 12.112C187.694 12.9653 187.299 14.0853 187.299 15.472H184.963C184.985 14.0427 185.294 12.7947 185.891 11.728C186.489 10.64 187.31 9.79733 188.355 9.2C189.422 8.60267 190.627 8.304 191.971 8.304C193.209 8.304 194.307 8.592 195.267 9.168C196.227 9.744 196.974 10.576 197.507 11.664C198.062 12.7307 198.339 14 198.339 15.472V24.656C198.339 25.0613 198.211 25.392 197.955 25.648C197.699 25.8827 197.379 26 196.995 26ZM174.915 26C174.489 26 174.147 25.8827 173.891 25.648C173.657 25.392 173.539 25.0613 173.539 24.656V9.872C173.539 9.46667 173.657 9.136 173.891 8.88C174.147 8.624 174.489 8.496 174.915 8.496C175.321 8.496 175.641 8.624 175.875 8.88C176.131 9.136 176.259 9.46667 176.259 9.872V24.656C176.259 25.0613 176.131 25.392 175.875 25.648C175.641 25.8827 175.321 26 174.915 26ZM185.955 26C185.571 26 185.251 25.8827 184.995 25.648C184.739 25.392 184.611 25.0613 184.611 24.656V15.472C184.611 14 184.227 12.8587 183.459 12.048C182.713 11.2373 181.753 10.832 180.579 10.832C179.321 10.832 178.286 11.248 177.475 12.08C176.665 12.912 176.259 14 176.259 15.344H174.403C174.446 13.9573 174.745 12.7413 175.299 11.696C175.854 10.6293 176.622 9.79733 177.603 9.2C178.585 8.60267 179.705 8.304 180.963 8.304C182.201 8.304 183.299 8.592 184.259 9.168C185.219 9.744 185.966 10.576 186.499 11.664C187.033 12.7307 187.299 14 187.299 15.472V24.656C187.299 25.0613 187.171 25.392 186.915 25.648C186.681 25.8827 186.361 26 185.955 26ZM226.734 26C226.329 26 225.998 25.8827 225.742 25.648C225.486 25.392 225.358 25.0613 225.358 24.656V15.472C225.358 14 224.985 12.8587 224.238 12.048C223.491 11.2373 222.521 10.832 221.326 10.832C220.067 10.832 219.033 11.2587 218.222 12.112C217.433 12.9653 217.038 14.0853 217.038 15.472H214.702C214.723 14.0427 215.033 12.7947 215.63 11.728C216.227 10.64 217.049 9.79733 218.094 9.2C219.161 8.60267 220.366 8.304 221.71 8.304C222.947 8.304 224.046 8.592 225.006 9.168C225.966 9.744 226.713 10.576 227.246 11.664C227.801 12.7307 228.078 14 228.078 15.472V24.656C228.078 25.0613 227.95 25.392 227.694 25.648C227.438 25.8827 227.118 26 226.734 26ZM204.654 26C204.227 26 203.886 25.8827 203.63 25.648C203.395 25.392 203.278 25.0613 203.278 24.656V9.872C203.278 9.46667 203.395 9.136 203.63 8.88C203.886 8.624 204.227 8.496 204.654 8.496C205.059 8.496 205.379 8.624 205.614 8.88C205.87 9.136 205.998 9.46667 205.998 9.872V24.656C205.998 25.0613 205.87 25.392 205.614 25.648C205.379 25.8827 205.059 26 204.654 26ZM215.694 26C215.31 26 214.99 25.8827 214.734 25.648C214.478 25.392 214.35 25.0613 214.35 24.656V15.472C214.35 14 213.966 12.8587 213.198 12.048C212.451 11.2373 211.491 10.832 210.318 10.832C209.059 10.832 208.025 11.248 207.214 12.08C206.403 12.912 205.998 14 205.998 15.344H204.142C204.185 13.9573 204.483 12.7413 205.038 11.696C205.593 10.6293 206.361 9.79733 207.342 9.2C208.323 8.60267 209.443 8.304 210.702 8.304C211.939 8.304 213.038 8.592 213.998 9.168C214.958 9.744 215.705 10.576 216.238 11.664C216.771 12.7307 217.038 14 217.038 15.472V24.656C217.038 25.0613 216.91 25.392 216.654 25.648C216.419 25.8827 216.099 26 215.694 26ZM241.049 26.16C239.3 26.16 237.753 25.7867 236.409 25.04C235.065 24.272 234.009 23.216 233.241 21.872C232.473 20.528 232.089 18.992 232.089 17.264C232.089 15.5147 232.452 13.9787 233.177 12.656C233.902 11.312 234.894 10.256 236.153 9.488C237.433 8.72 238.905 8.336 240.569 8.336C242.19 8.336 243.598 8.70933 244.793 9.456C246.009 10.1813 246.937 11.1947 247.577 12.496C248.238 13.7973 248.569 15.28 248.569 16.944C248.569 17.3067 248.452 17.6053 248.217 17.84C247.982 18.0533 247.684 18.16 247.321 18.16H233.945V15.952H247.481L246.105 16.912C246.126 15.7387 245.913 14.6827 245.465 13.744C245.017 12.8053 244.377 12.0693 243.545 11.536C242.713 11.0027 241.721 10.736 240.569 10.736C239.353 10.736 238.286 11.0133 237.369 11.568C236.473 12.1227 235.78 12.9013 235.289 13.904C234.82 14.8853 234.585 16.0053 234.585 17.264C234.585 18.5227 234.862 19.6427 235.417 20.624C235.972 21.6053 236.729 22.3733 237.689 22.928C238.67 23.4827 239.79 23.76 241.049 23.76C241.774 23.76 242.51 23.632 243.257 23.376C244.025 23.12 244.633 22.8 245.081 22.416C245.337 22.224 245.625 22.128 245.945 22.128C246.286 22.1067 246.564 22.192 246.777 22.384C247.097 22.6613 247.257 22.96 247.257 23.28C247.278 23.6 247.14 23.8773 246.841 24.112C246.137 24.7093 245.241 25.2 244.153 25.584C243.065 25.968 242.03 26.16 241.049 26.16Z" fill="#1D0F33"/>
<rect x="28.5" y="193.279" width="1178" height="884.221" rx="8.5" stroke="#E33E5A" stroke-width="3"/>
<path d="M93.202 258.727C92.6687 258.727 92.274 258.514 92.018 258.087C91.7833 257.639 91.762 257.191 91.954 256.743L101.234 234.663C101.511 234.045 101.959 233.735 102.578 233.735C103.197 233.735 103.623 234.045 103.858 234.663L113.17 256.775C113.383 257.245 113.351 257.693 113.074 258.119C112.818 258.525 112.445 258.727 111.954 258.727C111.677 258.727 111.421 258.653 111.186 258.503C110.951 258.354 110.77 258.151 110.642 257.895L102.13 237.031H103.09L94.45 257.895C94.3433 258.173 94.1727 258.386 93.938 258.535C93.7033 258.663 93.458 258.727 93.202 258.727ZM95.186 252.903L96.242 250.567H109.074L110.162 252.903H95.186Z" fill="black"/>
<path d="M147.906 258.727C147.501 258.727 147.149 258.599 146.85 258.343C146.573 258.087 146.434 257.757 146.434 257.351V235.111C146.434 234.706 146.562 234.375 146.818 234.119C147.074 233.863 147.405 233.735 147.81 233.735H155.554C156.877 233.735 158.061 234.013 159.106 234.567C160.173 235.122 161.016 235.879 161.634 236.839C162.253 237.778 162.562 238.877 162.562 240.135C162.562 241.266 162.253 242.269 161.634 243.143C161.037 244.018 160.248 244.701 159.266 245.191C160.674 245.554 161.816 246.258 162.69 247.303C163.565 248.327 164.002 249.65 164.002 251.271C164.002 252.743 163.661 254.034 162.978 255.143C162.317 256.253 161.389 257.127 160.194 257.767C159.021 258.407 157.666 258.727 156.13 258.727H147.906ZM149.186 256.135H156.13C157.133 256.135 158.018 255.943 158.786 255.559C159.576 255.154 160.194 254.599 160.642 253.895C161.09 253.17 161.314 252.295 161.314 251.271C161.314 250.333 161.09 249.522 160.642 248.839C160.194 248.157 159.576 247.634 158.786 247.271C158.018 246.909 157.133 246.727 156.13 246.727H149.186V256.135ZM149.186 244.103H155.554C156.813 244.103 157.848 243.762 158.658 243.079C159.469 242.397 159.874 241.415 159.874 240.135C159.874 238.877 159.469 237.927 158.658 237.287C157.848 236.647 156.813 236.327 155.554 236.327H149.186V244.103Z" fill="black"/>
<path d="M201.588 259.047C199.86 259.047 198.239 258.717 196.724 258.055C195.231 257.394 193.908 256.477 192.756 255.303C191.626 254.13 190.74 252.775 190.1 251.239C189.482 249.682 189.172 248.007 189.172 246.215C189.172 244.445 189.482 242.791 190.1 241.255C190.74 239.698 191.626 238.343 192.756 237.191C193.887 236.018 195.199 235.101 196.692 234.439C198.207 233.757 199.839 233.415 201.588 233.415C203.146 233.415 204.543 233.639 205.78 234.087C207.018 234.514 208.223 235.218 209.396 236.199C209.588 236.349 209.706 236.519 209.748 236.711C209.812 236.882 209.812 237.053 209.748 237.223C209.706 237.394 209.631 237.543 209.524 237.671C209.482 237.906 209.354 238.098 209.14 238.247C208.948 238.375 208.714 238.439 208.436 238.439C208.159 238.439 207.882 238.333 207.604 238.119C206.794 237.394 205.919 236.861 204.98 236.519C204.042 236.157 202.911 235.975 201.588 235.975C200.244 235.975 198.975 236.253 197.78 236.807C196.607 237.341 195.572 238.077 194.676 239.015C193.78 239.954 193.076 241.042 192.564 242.279C192.074 243.517 191.828 244.829 191.828 246.215C191.828 247.645 192.074 248.978 192.564 250.215C193.076 251.453 193.78 252.541 194.676 253.479C195.572 254.418 196.607 255.154 197.78 255.687C198.975 256.221 200.244 256.487 201.588 256.487C202.719 256.487 203.796 256.295 204.82 255.911C205.844 255.527 206.826 254.983 207.764 254.279C208.063 254.045 208.362 253.949 208.66 253.991C208.98 254.034 209.247 254.173 209.46 254.407C209.695 254.621 209.812 254.919 209.812 255.303C209.812 255.495 209.78 255.666 209.716 255.815C209.652 255.965 209.556 256.125 209.428 256.295C208.319 257.255 207.092 257.959 205.748 258.407C204.426 258.834 203.039 259.047 201.588 259.047Z" fill="black"/>
<path d="M247.685 258.727C247.28 258.727 246.949 258.599 246.693 258.343C246.437 258.087 246.309 257.757 246.309 257.351V235.111C246.309 234.706 246.437 234.375 246.693 234.119C246.949 233.863 247.28 233.735 247.685 233.735H253.445C255.28 233.735 256.955 234.045 258.469 234.663C260.005 235.261 261.328 236.125 262.437 237.255C263.547 238.365 264.4 239.677 264.997 241.191C265.595 242.706 265.893 244.381 265.893 246.215C265.893 248.05 265.595 249.735 264.997 251.271C264.4 252.786 263.547 254.109 262.437 255.239C261.328 256.349 260.005 257.213 258.469 257.831C256.955 258.429 255.28 258.727 253.445 258.727H247.685ZM249.061 256.263H253.445C255.365 256.263 257.051 255.837 258.501 254.983C259.973 254.109 261.125 252.914 261.957 251.399C262.789 249.885 263.205 248.157 263.205 246.215C263.205 244.274 262.789 242.546 261.957 241.031C261.125 239.517 259.973 238.333 258.501 237.479C257.051 236.626 255.365 236.199 253.445 236.199H249.061V256.263Z" fill="black"/>
<line x1="105.5" y1="295.65" x2="105.5" y2="982.807" stroke="black" stroke-width="3" stroke-linecap="round"/>
<line x1="252.5" y1="295.65" x2="252.5" y2="982.807" stroke="black" stroke-width="3" stroke-linecap="round"/>
<line x1="203.5" y1="295.65" x2="203.5" y2="982.807" stroke="black" stroke-width="3" stroke-linecap="round"/>
<line x1="156.5" y1="295.65" x2="156.5" y2="982.807" stroke="black" stroke-width="3" stroke-linecap="round"/>
<path d="M490 341.924V423.821H562C574.73 423.821 586.939 419.507 595.941 411.828C604.943 404.148 610 393.733 610 382.873C610 372.012 604.943 361.597 595.941 353.917C586.939 346.238 574.73 341.924 562 341.924H490ZM502 352.161H562C571.548 352.161 580.705 355.397 587.456 361.156C594.207 366.916 598 374.727 598 382.873C598 391.018 594.207 398.829 587.456 404.589C580.705 410.348 571.548 413.584 562 413.584H502V352.161Z" fill="#1D0F33"/>
<path d="M490 520.221V602.118H562C574.73 602.118 586.939 597.804 595.941 590.125C604.943 582.445 610 572.03 610 561.17C610 550.309 604.943 539.894 595.941 532.215C586.939 524.535 574.73 520.221 562 520.221H490ZM502 530.458H562C571.548 530.458 580.705 533.694 587.456 539.453C594.207 545.213 598 553.024 598 561.17C598 569.315 594.207 577.126 587.456 582.886C580.705 588.645 571.548 591.881 562 591.881H502V530.458Z" fill="#1D0F33"/>
<path d="M490 686.575V768.472H562C574.73 768.472 586.939 764.158 595.941 756.479C604.943 748.799 610 738.384 610 727.524C610 716.663 604.943 706.248 595.941 698.569C586.939 690.889 574.73 686.575 562 686.575H490ZM502 696.812H562C571.548 696.812 580.705 700.048 587.456 705.807C594.207 711.567 598 719.378 598 727.524C598 735.669 594.207 743.48 587.456 749.24C580.705 754.999 571.548 758.235 562 758.235H502V696.812Z" fill="#1D0F33"/>
<path d="M490 849.517V931.414H562C574.73 931.414 586.939 927.1 595.941 919.42C604.943 911.741 610 901.326 610 890.465C610 879.605 604.943 869.19 595.941 861.51C586.939 853.831 574.73 849.517 562 849.517H490ZM502 859.754H562C571.548 859.754 580.705 862.989 587.456 868.749C594.207 874.508 598 882.32 598 890.465C598 898.61 594.207 906.422 587.456 912.182C580.705 917.941 571.548 921.177 562 921.177H502V859.754Z" fill="#1D0F33"/>
<path d="M857 584.203C878.15 620.353 878.15 644.453 857 680.603H899.3C934.55 680.603 976.85 656.503 998 632.403C976.85 608.303 934.55 584.203 899.3 584.203H857ZM878.15 596.253H899.3C923.975 596.253 957.815 614.328 978.965 632.403C957.815 650.478 923.975 668.553 899.3 668.553H878.15C888.02 643.851 888.02 620.956 878.15 596.253Z" fill="#1D0F33"/>
<line x1="490" y1="349.462" x2="104.956" y2="349.462" stroke="black"/>
<line x1="490.043" y1="394.036" x2="202.998" y2="394.036" stroke="black"/>
<line x1="491.047" y1="373.125" x2="157.998" y2="373.125" stroke="black"/>
<path d="M338.1 381.418L365.987 395.153L338.1 408.888L338.1 381.418Z" fill="#1D0F33"/>
<ellipse cx="369.61" cy="395.153" rx="7.48466" ry="6.38514" fill="#1D0F33"/>
<line x1="490" y1="349.462" x2="104.956" y2="349.462" stroke="black"/>
<path d="M338.1 380.565L365.987 394.3L338.1 408.035L338.1 380.565Z" fill="#1D0F33"/>
<ellipse cx="369.61" cy="394.3" rx="7.48466" ry="6.38514" fill="#1D0F33"/>
<line x1="490.086" y1="759.056" x2="251.999" y2="759.056" stroke="black"/>
<line x1="490.043" y1="693.9" x2="104.999" y2="693.9" stroke="black"/>
<line x1="491.086" y1="716.406" x2="154.999" y2="716.406" stroke="black"/>
<path d="M338.1 680.002L365.987 693.737L338.1 707.472L338.1 680.002Z" fill="#1D0F33"/>
<ellipse cx="369.61" cy="693.737" rx="7.48466" ry="6.38514" fill="#1D0F33"/>
<line x1="490" y1="897.79" x2="203" y2="897.79" stroke="black"/>
<line x1="491.086" y1="920.291" x2="251.999" y2="920.291" stroke="black"/>
<path d="M338.1 883.893L365.987 897.628L338.1 911.363L338.1 883.893Z" fill="#1D0F33"/>
<ellipse cx="369.61" cy="897.628" rx="7.48466" ry="6.38514" fill="#1D0F33"/>
<line x1="490.102" y1="593.128" x2="251.986" y2="593.128" stroke="black"/>
<line x1="490.043" y1="527.546" x2="104.999" y2="527.546" stroke="black"/>
<line x1="720" y1="383.373" x2="604" y2="383.373" stroke="black"/>
<line x1="718" y1="891.818" x2="602" y2="891.818" stroke="black"/>
<line x1="718" y1="561.67" x2="602" y2="561.67" stroke="black"/>
<line x1="720" y1="728.024" x2="604" y2="728.024" stroke="black"/>
<line x1="491.09" y1="573.506" x2="202.995" y2="573.506" stroke="black"/>
<path d="M338.143 579.977L366.03 593.712L338.143 607.447L338.143 579.977Z" fill="#1D0F33"/>
<ellipse cx="369.653" cy="593.712" rx="7.48466" ry="6.38514" fill="#1D0F33"/>
<line y1="-0.5" x2="253.11" y2="-0.5" transform="matrix(0.568922 0.822391 -0.893185 0.449689 718 382.873)" stroke="black"/>
<line y1="-0.5" x2="262.307" y2="-0.5" transform="matrix(0.548976 -0.835838 0.902226 0.431264 718 892.171)" stroke="black"/>
<line y1="-0.5" x2="170.291" y2="-0.5" transform="matrix(0.89259 -0.450868 0.570186 0.821516 718 729.23)" stroke="black"/>
<line y1="-0.5" x2="165.85" y2="-0.5" transform="matrix(0.94061 0.33949 -0.444295 0.895881 718 562.023)" stroke="black"/>
<line x1="992" y1="632.33" x2="1119" y2="632.33" stroke="black"/>
<ellipse cx="1136" cy="631.977" rx="17" ry="14.5027" fill="#4ECB71"/>
</svg>
