<svg width="47" height="48" viewBox="0 0 47 48" fill="none" xmlns="http://www.w3.org/2000/svg">
<path fill-rule="evenodd" clip-rule="evenodd" d="M23.5 0C10.5216 0 0 10.7455 0 24C0 37.2545 10.5216 48 23.5 48C36.4784 48 47 37.2545 47 24C47 10.7455 36.4784 0 23.5 0ZM31.4195 18.9971C31.8087 18.5856 32.024 18.0345 32.0191 17.4624C32.0143 16.8903 31.7896 16.3431 31.3935 15.9386C30.9974 15.5341 30.4616 15.3046 29.9014 15.2996C29.3413 15.2946 28.8016 15.5146 28.3987 15.912L23.5 20.9149L18.6013 15.912C18.4042 15.7036 18.1685 15.5374 17.9079 15.4231C17.6472 15.3087 17.3669 15.2485 17.0832 15.246C16.7996 15.2435 16.5182 15.2987 16.2557 15.4084C15.9931 15.5181 15.7546 15.6801 15.554 15.885C15.3534 16.0898 15.1948 16.3334 15.0874 16.6016C14.98 16.8697 14.9259 17.157 14.9284 17.4467C14.9308 17.7364 14.9898 18.0227 15.1017 18.2889C15.2137 18.5551 15.3765 18.7958 15.5805 18.9971L20.4792 24L15.5805 29.0029C15.3765 29.2042 15.2137 29.4449 15.1017 29.7111C14.9898 29.9773 14.9308 30.2636 14.9284 30.5533C14.9259 30.843 14.98 31.1303 15.0874 31.3984C15.1948 31.6666 15.3534 31.9102 15.554 32.115C15.7546 32.3199 15.9931 32.4819 16.2557 32.5916C16.5182 32.7013 16.7996 32.7565 17.0832 32.754C17.3669 32.7515 17.6472 32.6913 17.9079 32.5769C18.1685 32.4626 18.4042 32.2964 18.6013 32.088L23.5 27.0851L28.3987 32.088C28.8016 32.4854 29.3413 32.7053 29.9014 32.7004C30.4616 32.6954 30.9974 32.4659 31.3935 32.0614C31.7896 31.6569 32.0143 31.1097 32.0191 30.5376C32.024 29.9655 31.8087 29.4144 31.4195 29.0029L26.5208 24L31.4195 18.9971Z" fill="#E33E5A"/>
</svg>
