<svg width="32" height="33" viewBox="0 0 32 33" fill="none" xmlns="http://www.w3.org/2000/svg">
<path d="M7.01172 32.5079L31.6778 18.267L26.0735 8.56013C23.6707 4.39833 18.1902 2.59585 12.4247 4.14496C12.4528 3.4816 12.4109 2.69692 12.0606 2.09024C11.5032 1.12484 10.4814 0.480291 9.21997 0.298403C7.95852 0.116514 6.56074 0.41218 5.33414 1.12036C4.10754 1.82853 3.1526 2.89121 2.67939 4.07461C2.20618 5.25801 2.25347 6.4652 2.81084 7.4306C3.16111 8.03728 3.7216 8.47405 4.40824 8.77327C0.183941 12.9918 -0.995347 18.6393 1.40747 22.8011L7.01172 32.5079ZM8.69392 28.3011L4.49073 21.021C3.37598 19.0902 3.28141 16.6758 4.22783 14.309C5.17425 11.9422 7.08413 9.81684 9.53733 8.40049C11.9905 6.98413 14.7861 6.3928 17.309 6.75658C19.8319 7.12036 21.8755 8.40944 22.9903 10.3403L27.1935 17.6204L8.69392 28.3011ZM5.8941 5.65048C5.54384 5.0438 5.96439 3.9921 6.7352 3.54707C7.50602 3.10204 8.6271 3.26368 8.97736 3.87036C9.16316 4.19216 9.17892 4.59456 9.02118 4.98903C8.86344 5.38349 8.54513 5.73772 8.13626 5.97378C7.36545 6.41881 6.24437 6.25716 5.8941 5.65048Z" fill="#E33E5A" fill-opacity="0.5"/>
</svg>
