<svg width="34" height="44" viewBox="0 0 34 44" fill="none" xmlns="http://www.w3.org/2000/svg">
<path d="M15.4545 25.3393H10.2386C10.1362 25.3393 10.0379 25.3807 9.96544 25.4543C9.89298 25.528 9.85227 25.6279 9.85227 25.7321V28.0893C9.85227 28.1935 9.89298 28.2934 9.96544 28.3671C10.0379 28.4408 10.1362 28.4821 10.2386 28.4821H15.4545V33.7857C15.4545 33.8899 15.4953 33.9898 15.5677 34.0635C15.6402 34.1372 15.7384 34.1786 15.8409 34.1786H18.1591C18.2616 34.1786 18.3598 34.1372 18.4323 34.0635C18.5047 33.9898 18.5455 33.8899 18.5455 33.7857V28.4821H23.7614C23.8638 28.4821 23.9621 28.4408 24.0346 28.3671C24.107 28.2934 24.1477 28.1935 24.1477 28.0893V25.7321C24.1477 25.6279 24.107 25.528 24.0346 25.4543C23.9621 25.3807 23.8638 25.3393 23.7614 25.3393H18.5455V20.0357C18.5455 19.9315 18.5047 19.8316 18.4323 19.7579C18.3598 19.6842 18.2616 19.6429 18.1591 19.6429H15.8409C15.7384 19.6429 15.6402 19.6842 15.5677 19.7579C15.4953 19.8316 15.4545 19.9315 15.4545 20.0357V25.3393ZM33.546 11.0344C33.8358 11.329 34 11.7268 34 12.1442V42.4286C34 43.2978 33.3094 44 32.4545 44H1.54545C0.690625 44 0 43.2978 0 42.4286V1.57143C0 0.702232 0.690625 0 1.54545 0H22.0565C22.467 0 22.8631 0.166964 23.1528 0.461607L33.546 11.0344ZM30.4358 12.8661L21.3466 3.62411V12.8661H30.4358Z" fill="white"/>
</svg>
