<svg width="52" height="52" viewBox="0 0 52 52" fill="none" xmlns="http://www.w3.org/2000/svg">
<path d="M43.9851 9.81836H15.2118C13.4779 9.81836 12.0723 11.224 12.0723 12.9579V31.8447C12.0723 33.5786 13.4779 34.9842 15.2118 34.9842H43.9851C45.719 34.9842 47.1246 33.5786 47.1246 31.8447V12.9579C47.1246 11.224 45.719 9.81836 43.9851 9.81836Z" stroke="white" stroke-width="3" stroke-linecap="round" stroke-linejoin="round"/>
<path d="M12.0727 20.1555H47.125M12.0727 17.016H8.0145C7.60218 17.0158 7.19386 17.0969 6.8129 17.2547C6.43193 17.4124 6.08578 17.6436 5.79422 17.9352C5.50266 18.2267 5.27141 18.5729 5.11369 18.9539C4.95597 19.3348 4.87486 19.7431 4.875 20.1555V39.0423C4.875 39.8749 5.20577 40.6735 5.79454 41.2623C6.38331 41.851 7.18185 42.1818 8.0145 42.1818H36.7878C37.2001 42.1818 37.6084 42.1006 37.9893 41.9428C38.3702 41.785 38.7163 41.5538 39.0078 41.2623C39.2993 40.9707 39.5306 40.6246 39.6884 40.2437C39.8461 39.8628 39.9273 39.4546 39.9273 39.0423V34.9841L12.0727 17.016ZM12.0727 13.8765H47.125H12.0727Z" stroke="white" stroke-width="3" stroke-linecap="round" stroke-linejoin="round"/>
</svg>
